#!OML:ASF H:\Dans Jumps\Project 1\Capture day 1\Session 1\subject.ASF
:FULLY-SPECIFIED
:DEGREES
289
root 0.780897 17.0414 -15.3359 16.3995 -1.1758 -1.79678
lowerback 8.06543 -0.229524 0.622203
upperback 6.13683 -0.286956 2.18896
thorax 1.83761 -0.169122 1.92774
lowerneck -15.1917 0.732313 -1.56113
upperneck 16.9344 1.69986 -1.69918
head 7.73524 0.538883 -0.116643
rclavicle -2.5842e-015 7.55382e-015
rhumerus -21.3143 -18.6185 -76.8652
rradius 25.9858
rwrist 31.9351
rhand -18.6342 -25.1808
rfingers 7.12502
rthumb 7.65827 -55.0222
lclavicle -2.5842e-015 7.55382e-015
lhumerus -20.0048 0.0785842 84.9716
lradius 20.9495
lwrist 7.85268
lhand -25.3059 -4.16023
lfingers 7.12502
lthumb 1.21617 25.816
rfemur -38.8775 -3.11283 20.532
rtibia 38.0434
rfoot -14.8467 -3.47563
rtoes 6.46507
lfemur -38.8388 11.3168 -20.971
ltibia 37.1394
lfoot -13.5189 3.79077
ltoes -10.6259
290
root 0.780704 17.0185 -15.3718 16.7044 -1.20331 -1.86867
lowerback 8.39221 -0.204668 0.645506
upperback 6.20646 -0.248111 2.2161
thorax 1.72961 -0.149729 1.94199
lowerneck -15.2046 0.731527 -1.53366
upperneck 16.5109 1.69043 -1.73986
head 7.59829 0.538223 -0.136088
rclavicle -6.16232e-015 -1.78906e-014
rhumerus -21.4308 -18.6658 -76.7676
rradius 25.9694
rwrist 31.9848
rhand -18.5937 -25.1921
rfingers 7.12502
rthumb 7.69733 -55.032
lclavicle -6.16232e-015 -1.78906e-014
lhumerus -20.1374 0.0985434 84.9323
lradius 20.8989
lwrist 7.8575
lhand -25.3418 -4.19798
lfingers 7.12502
lthumb 1.1815 25.7785
rfemur -39.6208 -3.11969 20.6513
rtibia 38.5041
rfoot -14.8855 -3.42625
rtoes 6.43716
lfemur -39.6367 11.3734 -20.9998
ltibia 37.7021
lfoot -13.6141 3.82213
ltoes -10.6901
291
root 0.780166 16.9955 -15.4068 17.0127 -1.24002 -1.92785
lowerback 8.71177 -0.177893 0.648222
upperback 6.2733 -0.207951 2.23737
thorax 1.62297 -0.13022 1.96136
lowerneck -15.2175 0.730542 -1.51042
upperneck 16.0922 1.67988 -1.77115
head 7.46326 0.537587 -0.151797
rclavicle -2.38542e-015 -2.3059e-014
rhumerus -21.5585 -18.7119 -76.6746
rradius 25.9542
rwrist 32.0342
rhand -18.5571 -25.2178
rfingers 7.12502
rthumb 7.73269 -55.0564
lclavicle -2.38542e-015 -2.3059e-014
lhumerus -20.2785 0.12981 84.8892
lradius 20.8459
lwrist 7.87573
lhand -25.3344 -4.11368
lfingers 7.12502
lthumb 1.18856 25.8628
rfemur -40.3671 -3.1183 20.7562
rtibia 38.9684
rfoot -14.9318 -3.38352
rtoes 6.40304
lfemur -40.4278 11.4214 -21.0393
ltibia 38.2537
lfoot -13.708 3.8692
ltoes -10.7633
292
root 0.779319 16.9719 -15.4411 17.3229 -1.28698 -1.97338
lowerback 9.02687 -0.149349 0.6306
upperback 6.33513 -0.166779 2.25186
thorax 1.51382 -0.110687 1.98477
lowerneck -15.2411 0.732233 -1.48135
upperneck 15.6945 1.67243 -1.80327
head 7.33748 0.538315 -0.168277
rclavicle 1.0138e-014 7.15625e-015
rhumerus -21.7063 -18.7504 -76.5831
rradius 25.9438
rwrist 32.0746
rhand -18.5265 -25.2379
rfingers 7.12502
rthumb 7.76215 -55.0754
lclavicle 1.0138e-014 7.15625e-015
lhumerus -20.4364 0.170999 84.8426
lradius 20.7896
lwrist 7.91608
lhand -25.3627 -4.0757
lfingers 7.12502
lthumb 1.16131 25.9009
rfemur -41.1174 -3.10809 20.8447
rtibia 39.4385
rfoot -14.9863 -3.34543
rtoes 6.3755
lfemur -41.2121 11.4628 -21.0908
ltibia 38.7944
lfoot -13.8011 3.9317
ltoes -10.8397
293
root 0.778313 16.9482 -15.4744 17.6354 -1.34287 -2.00326
lowerback 9.33044 -0.120363 0.59378
upperback 6.39585 -0.12671 2.25794
thorax 1.41011 -0.0921308 2.01006
lowerneck -15.2574 0.734472 -1.4582
upperneck 15.293 1.66465 -1.82413
head 7.20939 0.539659 -0.180136
rclavicle 8.34896e-015 -3.18055e-015
rhumerus -21.8602 -18.7903 -76.4992
rradius 25.9329
rwrist 32.1112
rhand -18.4993 -25.2561
rfingers 7.12502
rthumb 7.78843 -55.0927
lclavicle 8.34896e-015 -3.18055e-015
lhumerus -20.6012 0.217956 84.7902
lradius 20.7271
lwrist 7.97514
lhand -25.3494 -3.95962
lfingers 7.12502
lthumb 1.17408 26.0169
rfemur -41.8699 -3.09165 20.9136
rtibia 39.9143
rfoot -15.0513 -3.30908
rtoes 6.36333
lfemur -41.9873 11.4926 -21.155
ltibia 39.3245
lfoot -13.8956 4.01457
ltoes -10.9217
294
root 0.777236 16.9242 -15.5067 17.9476 -1.4042 -2.01976
lowerback 9.62308 -0.091441 0.542212
upperback 6.45497 -0.0882525 2.25805
thorax 1.31097 -0.0747006 2.0373
lowerneck -15.2803 0.738139 -1.43321
upperneck 14.9042 1.65891 -1.84553
head 7.08701 0.541773 -0.192188
rclavicle 2.98177e-015 -1.5704e-014
rhumerus -22.026 -18.8283 -76.4157
rradius 25.924
rwrist 32.1386
rhand -18.466 -25.2701
rfingers 7.12502
rthumb 7.82054 -55.1054
lclavicle 2.98177e-015 -1.5704e-014
lhumerus -20.7785 0.27307 84.7366
lradius 20.6591
lwrist 8.05294
lhand -25.3477 -3.90682
lfingers 7.12502
lthumb 1.17571 26.0697
rfemur -42.6218 -3.06997 20.9649
rtibia 40.395
rfoot -15.1256 -3.275
rtoes 6.3707
lfemur -42.7533 11.5089 -21.2284
ltibia 39.848
lfoot -13.9953 4.11889
ltoes -11.0092
295
root 0.776124 16.8997 -15.5383 18.2613 -1.46769 -2.02809
lowerback 9.90749 -0.063546 0.482849
upperback 6.50908 -0.052141 2.25404
thorax 1.21138 -0.0585492 2.06459
lowerneck -15.3029 0.743021 -1.41049
upperneck 14.5268 1.65516 -1.8648
head 6.96859 0.54472 -0.202934
rclavicle 7.15625e-015 -1.5704e-014
rhumerus -22.2026 -18.8828 -76.3295
rradius 25.9094
rwrist 32.176
rhand -18.4341 -25.2704
rfingers 7.12502
rthumb 7.85133 -55.1046
lclavicle 7.15625e-015 -1.5704e-014
lhumerus -20.9739 0.329014 84.6837
lradius 20.5857
lwrist 8.143
lhand -25.3543 -3.92822
lfingers 7.12502
lthumb 1.16942 26.0483
rfemur -43.374 -3.04184 21.004
rtibia 40.8786
rfoot -15.2064 -3.24535
rtoes 6.39352
lfemur -43.5137 11.5096 -21.3038
ltibia 40.3682
lfoot -14.0992 4.24619
ltoes -11.107
296
root 0.775125 16.8746 -15.5687 18.5843 -1.53856 -2.03996
lowerback 10.1769 -0.0348431 0.42273
upperback 6.55673 -0.015572 2.25041
thorax 1.11338 -0.0421576 2.09241
lowerneck -15.3212 0.749498 -1.39411
upperneck 14.1542 1.65469 -1.88235
head 6.85128 0.548975 -0.211749
rclavicle 8.54774e-015 -5.36719e-015
rhumerus -22.3843 -18.9494 -76.2406
rradius 25.8887
rwrist 32.2202
rhand -18.3906 -25.2906
rfingers 7.12502
rthumb 7.89332 -55.1232
lclavicle 8.54774e-015 -5.36719e-015
lhumerus -21.1824 0.393807 84.6321
lradius 20.5033
lwrist 8.21881
lhand -25.3395 -3.95273
lfingers 7.12502
lthumb 1.1837 26.0237
rfemur -44.1336 -2.99959 21.0418
rtibia 41.3635
rfoot -15.292 -3.21815
rtoes 6.42551
lfemur -44.277 11.499 -21.3704
ltibia 40.8895
lfoot -14.2076 4.4039
ltoes -11.2297
297
root 0.774242 16.8492 -15.5981 18.9131 -1.60921 -2.05674
lowerback 10.4328 -0.00773381 0.365317
upperback 6.60013 0.0185985 2.24888
thorax 1.01853 -0.0268885 2.12086
lowerneck -15.3376 0.75722 -1.38342
upperneck 13.7888 1.6571 -1.89897
head 6.73619 0.554299 -0.219034
rclavicle -4.37326e-015 -1.2921e-014
rhumerus -22.5641 -19.0386 -76.1489
rradius 25.8574
rwrist 32.2764
rhand -18.3417 -25.3213
rfingers 7.12502
rthumb 7.94057 -55.1521
lclavicle -4.37326e-015 -1.2921e-014
lhumerus -21.3964 0.470045 84.5831
lradius 20.4049
lwrist 8.27112
lhand -25.2974 -3.94656
lfingers 7.12502
lthumb 1.22437 26.0297
rfemur -44.8942 -2.94834 21.0807
rtibia 41.8486
rfoot -15.3853 -3.19505
rtoes 6.47522
lfemur -45.0405 11.4743 -21.4245
ltibia 41.415
lfoot -14.3258 4.58989
ltoes -11.3764
298
root 0.773524 16.8234 -15.6262 19.2483 -1.67923 -2.07746
lowerback 10.6719 0.0170462 0.308842
upperback 6.63897 0.0492695 2.25052
thorax 0.928364 -0.0133663 2.15219
lowerneck -15.3519 0.765485 -1.38567
upperneck 13.4338 1.66234 -1.9098
head 6.62426 0.560685 -0.222063
rclavicle -5.56597e-015 -2.22639e-014
rhumerus -22.7422 -19.1383 -76.0545
rradius 25.8191
rwrist 32.3347
rhand -18.2878 -25.3727
rfingers 7.12502
rthumb 7.99261 -55.2015
lclavicle -5.56597e-015 -2.22639e-014
lhumerus -21.6187 0.553965 84.539
lradius 20.2943
lwrist 8.3006
lhand -25.2244 -3.8846
lfingers 7.12502
lthumb 1.29482 26.0912
rfemur -45.6555 -2.89096 21.1203
rtibia 42.3334
rfoot -15.4906 -3.17614
rtoes 6.52645
lfemur -45.8046 11.4373 -21.4685
ltibia 41.9461
lfoot -14.4562 4.81477
ltoes -11.5861
299
root 0.772874 16.7971 -15.6532 19.5799 -1.74732 -2.10687
lowerback 10.9023 0.0407627 0.26051
upperback 6.67794 0.0787991 2.25422
thorax 0.843144 -0.000218009 2.18102
lowerneck -15.3768 0.774737 -1.38711
upperneck 13.0942 1.66979 -1.92374
head 6.51937 0.567662 -0.225961
rclavicle -3.37934e-015 -5.1684e-015
rhumerus -22.9205 -19.2528 -75.9593
rradius 25.7783
rwrist 32.3924
rhand -18.228 -25.4289
rfingers 7.12502
rthumb 8.05025 -55.2555
lclavicle -3.37934e-015 -5.1684e-015
lhumerus -21.8404 0.64403 84.4989
lradius 20.1664
lwrist 8.29985
lhand -25.1388 -3.78688
lfingers 7.12502
lthumb 1.37748 26.1884
rfemur -46.4067 -2.82539 21.1652
rtibia 42.8186
rfoot -15.6127 -3.16656
rtoes 6.58206
lfemur -46.5599 11.393 -21.4958
ltibia 42.483
lfoot -14.6004 5.08829
ltoes -11.878
300
root 0.772268 16.7704 -15.6793 19.9108 -1.81222 -2.14156
lowerback 11.1228 0.0626733 0.216893
upperback 6.71491 0.10602 2.25989
thorax 0.761483 0.0118917 2.20934
lowerneck -15.4002 0.78591 -1.38258
upperneck 12.7616 1.6801 -1.94713
head 6.41684 0.575448 -0.233592
rclavicle -4.37326e-015 2.72335e-014
rhumerus -23.102 -19.3729 -75.8619
rradius 25.7327
rwrist 32.4495
rhand -18.1776 -25.4773
rfingers 7.12502
rthumb 8.09894 -55.3021
lclavicle -4.37326e-015 2.72335e-014
lhumerus -22.0605 0.751706 84.4597
lradius 20.0192
lwrist 8.25322
lhand -25.0288 -3.64273
lfingers 7.12502
lthumb 1.48373 26.3319
rfemur -47.1519 -2.75519 21.213
rtibia 43.3051
rfoot -15.7559 -3.17092
rtoes 6.63115
lfemur -47.3103 11.3426 -21.5125
ltibia 43.0237
lfoot -14.758 5.41184
ltoes -12.2664
